<?xml version="1.0" encoding="UTF-8" standalone="no"?><!DOCTYPE svg PUBLIC "-//W3C//DTD SVG 1.1//EN" "http://www.w3.org/Graphics/SVG/1.1/DTD/svg11.dtd"><svg width="100%" height="100%" viewBox="0 0 729 300" version="1.1" xmlns="http://www.w3.org/2000/svg" xmlns:xlink="http://www.w3.org/1999/xlink" xml:space="preserve" xmlns:serif="http://www.serif.com/" style="fill-rule:evenodd;clip-rule:evenodd;stroke-linejoin:round;stroke-miterlimit:1.41421;"><rect id="sflive-medium" x="0" y="0" width="729" height="300" style="fill:none;"/><clipPath id="_clip1"><rect x="0" y="0" width="729" height="300"/></clipPath><g clip-path="url(#_clip1)"><g id="sflive-medium1" serif:id="sflive-medium"><path d="M300,30c0,-16.557 -13.443,-30 -30,-30l-240,0c-16.557,0 -30,13.443 -30,30l0,240c0,16.557 13.443,30 30,30l240,0c16.557,0 30,-13.443 30,-30l0,-240Z" style="fill:#d5054e;"/><path d="M225.973,38.889c-16.691,0.571 -31.263,9.785 -42.109,22.497c-12.009,13.961 -19.996,30.505 -25.759,47.404c-10.292,-8.444 -18.229,-19.369 -34.756,-24.121c-12.768,-3.671 -26.177,-2.162 -38.512,7.029c-5.842,4.362 -9.867,10.951 -11.78,17.165c-4.957,16.111 5.206,30.458 9.826,35.603l10.102,10.814c2.077,2.124 7.093,7.658 4.638,15.586c-2.64,8.634 -13.041,14.206 -23.708,10.931c-4.767,-1.462 -11.611,-5.01 -10.075,-9.999c0.627,-2.048 2.092,-3.589 2.883,-5.336c0.714,-1.526 1.063,-2.66 1.28,-3.339c1.948,-6.355 -0.718,-14.632 -7.53,-16.738c-6.36,-1.951 -12.864,-0.405 -15.387,7.778c-2.859,9.299 1.591,26.178 25.434,33.523c27.932,8.596 51.555,-6.619 54.906,-26.447c2.113,-12.42 -3.501,-21.654 -13.772,-33.52l-8.377,-9.267c-5.068,-5.065 -6.811,-13.702 -1.564,-20.338c4.433,-5.605 10.735,-7.987 21.074,-5.18c15.085,4.09 21.803,14.558 33.018,23.002c-4.623,15.193 -7.655,30.443 -10.392,44.116l-1.681,10.202c-8.016,42.045 -14.139,65.143 -30.045,78.4c-3.208,2.283 -7.788,5.696 -14.69,5.939c-3.627,0.111 -4.796,-2.385 -4.846,-3.475c-0.082,-2.534 2.057,-3.7 3.478,-4.84c2.13,-1.163 5.344,-3.085 5.124,-9.246c-0.232,-7.281 -6.261,-13.591 -14.98,-13.301c-6.528,0.22 -16.48,6.357 -16.102,17.608c0.384,11.622 11.212,20.329 27.543,19.776c8.728,-0.293 28.222,-3.844 47.427,-26.673c22.357,-26.18 28.609,-56.181 33.311,-78.143l5.253,-28.999c2.913,0.352 6.033,0.589 9.426,0.668c27.847,0.589 41.766,-13.828 41.983,-24.323c0.141,-6.349 -4.163,-12.604 -10.192,-12.454c-4.307,0.12 -9.727,2.997 -11.022,8.956c-1.278,5.845 8.856,11.127 0.937,16.269c-5.625,3.639 -15.709,6.199 -29.913,4.122l2.581,-14.274c5.271,-27.065 11.772,-60.353 36.438,-61.167c1.799,-0.085 8.37,0.076 8.523,4.429c0.044,1.445 -0.32,1.826 -2.016,5.145c-1.734,2.59 -2.388,4.805 -2.303,7.336c0.238,6.906 5.491,11.453 13.099,11.189c10.172,-0.343 13.093,-10.242 12.926,-15.334c-0.416,-11.965 -13.022,-19.524 -29.699,-18.973Z" style="fill:#fefefe;fill-rule:nonzero;"/><path d="M718.371,236.717c-0.001,-3.592 -1.704,-6.971 -4.593,-9.107c-2.888,-2.136 -6.618,-2.776 -10.053,-1.724c-7.682,2.324 -16.372,3.939 -23.278,3.939c-29.172,0 -44.553,-23.072 -44.553,-51.714c0,0 64.285,-0.012 85.48,-0.005c1.798,0.013 3.528,-0.689 4.808,-1.953c1.28,-1.264 2.004,-2.985 2.013,-4.784c0.111,-38.124 -12.299,-68.84 -52.859,-68.84c-36.225,0 -57.741,29.437 -57.741,70.809c0,40.575 16.707,70.808 61.526,70.808c12.464,0 27.581,-2.652 39.25,-7.426c0,0 0,-0.001 0,-0.003Zm-266.62,4.246l-79.851,0l0,-185.109c0,0 2.47,0 5.595,0c3.369,0 6.6,1.339 8.983,3.721c2.382,2.383 3.721,5.614 3.721,8.983l0,156.493l74.255,0l0,3.208c0,3.37 -1.338,6.601 -3.72,8.983c-2.383,2.383 -5.614,3.721 -8.983,3.721Zm118.373,0l-19.625,0l-45.879,-135.251c0,0 4.491,0 9.023,0c5.526,0 10.418,3.572 12.101,8.835c8.71,27.242 34.568,108.118 34.568,108.118l0.53,0l36.343,-108.291c1.736,-5.175 6.585,-8.662 12.044,-8.662c4.243,0 8.366,0 8.366,0l-47.471,135.251Zm-76.89,-135.251l0,122.547c0,7.017 -5.687,12.704 -12.704,12.704l-4.003,0l0,-135.251l16.707,0Zm217.639,58.078c0.72,-24.513 -8.64,-46.94 -35.2,-46.94c-24.663,0 -39.779,24.664 -39.779,46.94l74.979,0Zm-216.276,-88.944c0,-2.492 -0.99,-4.882 -2.752,-6.644c-1.762,-1.762 -4.152,-2.752 -6.644,-2.752c-0.001,0 -0.001,0 -0.001,0c-2.492,0 -4.882,0.99 -6.644,2.752c-1.763,1.762 -2.753,4.152 -2.753,6.644c0,0.19 0,0.38 0,0.57c0,2.492 0.99,4.883 2.753,6.645c1.762,1.762 4.152,2.752 6.644,2.752c0,0 0,0 0.001,0c2.492,0 4.882,-0.99 6.644,-2.752c1.762,-1.762 2.752,-4.153 2.752,-6.645c0,-0.19 0,-0.38 0,-0.57Z" style="fill:#d5054e;"/></g></g></svg>